<svg width="80" height="80" viewBox="0 0 80 80" fill="none" xmlns="http://www.w3.org/2000/svg">
<g clip-path="url(#clip0_80_1003)">
<mask id="mask0_80_1003" style="mask-type:luminance" maskUnits="userSpaceOnUse" x="0" y="0" width="80" height="80">
<path d="M80 40C80 17.9086 62.0914 0 40 0C17.9086 0 0 17.9086 0 40C0 62.0914 17.9086 80 40 80C62.0914 80 80 62.0914 80 40Z" fill="white"/>
</mask>
<g mask="url(#mask0_80_1003)">
<path d="M80 0H0V80H80V0Z" fill="#FFAD08"/>
</g>
<path d="M24.9933 42.7615C24.9933 42.7615 23.6043 47.1416 24.4145 48.9859C24.4145 48.9859 19.2636 54.6916 24.5882 60.2243C24.5882 60.2243 35.7003 71.9814 52.137 59.1869C52.137 59.1869 60.2931 59.9157 57.7259 53.9197C57.7259 53.9197 56.1932 51.5137 52.9472 54.6916C52.9472 54.6916 70.8887 41.3207 59.5451 27.4888C48.2014 13.6569 27.8292 15.7317 22.9676 26.2209C18.1061 36.7101 24.9933 42.7615 24.9933 42.7615Z" fill="white" stroke="black" stroke-width="0.925837" stroke-miterlimit="10" stroke-linejoin="round"/>
<path d="M53.8389 56.7204C54.0416 56.3501 54.6753 55.6809 55.5877 55.9665" stroke="black" stroke-width="0.720096" stroke-linecap="round"/>
<path d="M43.131 29.7535C43.131 29.7535 29.0211 41.7656 25.2045 43.3826C25.2045 43.3826 24.5105 48.0027 24.7418 49.0422C24.7418 49.0422 20.5783 52.0452 22.7757 57.7048C22.7757 57.7048 16.9929 63.1333 13.1763 60.8233C13.1763 60.8233 12.3667 60.3613 14.2172 59.8993C16.0677 59.4373 18.2651 56.2033 17.2242 51.9297C16.1833 47.6562 12.2511 26.866 27.4019 19.7049C27.4019 19.7049 36.77 14.0454 47.2946 18.7809C47.2946 18.7809 45.5598 13.2368 49.9547 13.0058C54.3496 12.7748 53.193 19.4739 53.193 19.4739C53.193 19.4739 56.2001 12.4283 61.4046 16.3554C61.4046 16.3554 64.1803 21.2064 59.4384 23.1699C59.4384 23.1699 69.5004 28.5985 66.2621 43.2671C66.2621 43.2671 59.4384 58.8598 62.5611 66.8294C62.5611 66.8294 63.2551 67.9844 61.1733 67.0604C59.0915 66.1364 52.1521 63.3643 51.9208 58.9753C51.9208 58.9753 57.9349 59.7838 58.0506 55.3948C58.0506 55.3948 58.5132 52.8537 55.5062 52.8537L53.3907 54.1009C53.3907 54.1009 52.8461 54.4707 52.6148 53.4312C52.3835 52.3917 53.54 52.3917 53.54 51.2367C53.54 50.0817 53.4244 48.4647 51.4582 46.8477C49.4921 45.2307 42.8997 37.1456 43.131 29.7535Z" fill="black"/>
<path d="M35.6327 51.9374C35.6327 51.9374 34.4832 50.7501 33.5636 52.1749C33.5636 52.1749 32.8739 53.8372 35.2879 53.481" stroke="black" stroke-width="0.822967" stroke-miterlimit="10" stroke-linecap="round"/>
<path d="M28.9236 43.9644C28.9236 43.9644 29.0415 45.12 29.7489 45.3511C30.4563 45.5822 31.5174 45.9289 31.5174 47.6623C31.5174 49.3957 31.2816 52.5159 29.8668 52.2847C28.452 52.0536 27.7446 49.858 28.9236 46.16" stroke="black" stroke-width="1.02871" stroke-miterlimit="10" stroke-linecap="round"/>
<path d="M41.6802 44.7871C41.6802 44.7871 41.7981 45.9427 42.5055 46.1738C43.2129 46.405 44.274 46.7516 44.274 48.4851C44.274 50.2185 44.0382 53.3386 42.6234 53.1075C41.2086 52.8764 40.5012 50.6807 41.6802 46.9828" stroke="black" stroke-width="1.02871" stroke-miterlimit="10" stroke-linecap="round"/>
<path d="M28.7215 48.6219C28.7215 48.6219 28.8377 47.5919 29.7672 47.4775C30.6966 47.363 31.0793 47.8945 31.1614 48.6219C31.2776 49.6519 31.2334 52.3083 30.326 52.2968C29.4186 52.2842 28.0244 51.5975 28.7215 48.6219Z" fill="black"/>
<path d="M41.4779 49.3668C41.4779 49.3668 41.594 48.3149 42.5235 48.198C43.453 48.0811 43.8357 48.6239 43.9177 49.3668C44.0339 50.4188 43.9897 53.1316 43.0824 53.1199C42.175 53.107 40.7808 52.4057 41.4779 49.3668Z" fill="black"/>
<path d="M30.2046 39.6374C30.2046 39.6374 33.5931 38.6263 34.4838 41.7097" stroke="black" stroke-width="1.02871" stroke-miterlimit="10" stroke-linecap="round"/>
<path d="M40.8575 41.8005C40.8575 41.8005 44.38 39.4975 47.3794 41.7933" stroke="black" stroke-width="1.02871" stroke-miterlimit="10" stroke-linecap="round"/>
<path d="M28.657 56.1188C28.9558 55.5204 28.1783 54.5285 26.9204 53.9032C25.6625 53.278 24.4005 53.2562 24.1016 53.8545C23.8028 54.4529 24.5803 55.4449 25.8382 56.0701C27.0962 56.6954 28.3582 56.7172 28.657 56.1188Z" fill="#FF7262"/>
<path d="M45.5368 58.1614C46.9072 57.8507 47.898 57.0703 47.7499 56.4183C47.6018 55.7663 46.3708 55.4896 45.0004 55.8003C43.63 56.1109 42.6391 56.8914 42.7872 57.5434C42.9353 58.1954 44.1664 58.4721 45.5368 58.1614Z" fill="#FF7262"/>
<path d="M32.9558 57.5435C32.9558 57.5435 33.2738 59.1523 35.595 59.1886C37.9162 59.2248 38.6137 58.0148 38.6137 58.0148" stroke="black" stroke-width="0.822967" stroke-miterlimit="10" stroke-linecap="round"/>
</g>
<g clip-path="url(#clip1_80_1003)">
<rect x="56" y="55" width="24" height="24" rx="12" fill="black"/>
<path d="M63.9622 63.0968C64.0819 62.9731 64.1471 62.8096 64.144 62.6407C64.1409 62.4717 64.0698 62.3105 63.9456 62.191C63.8215 62.0715 63.6541 62.0031 63.4785 62.0001C63.303 61.9971 63.1332 62.0598 63.0047 62.175L61.1981 63.9142C61.0713 64.0364 61 64.2022 61 64.375C61 64.5479 61.0713 64.7136 61.1981 64.8359L63.0047 66.575C63.0668 66.6391 63.1416 66.6905 63.2247 66.7262C63.3078 66.7618 63.3975 66.781 63.4884 66.7825C63.5794 66.7841 63.6698 66.7679 63.7541 66.7351C63.8385 66.7023 63.9151 66.6535 63.9794 66.5916C64.0438 66.5297 64.0945 66.4559 64.1286 66.3747C64.1626 66.2935 64.1794 66.2065 64.1778 66.1189C64.1762 66.0314 64.1562 65.945 64.1192 65.865C64.0822 65.785 64.0288 65.713 63.9622 65.6533L63.3119 65.0272H72.5165C72.6962 65.0272 72.8685 64.9585 72.9956 64.8362C73.1226 64.7139 73.194 64.548 73.194 64.375C73.194 64.2021 73.1226 64.0362 72.9956 63.9139C72.8685 63.7916 72.6962 63.7229 72.5165 63.7229H63.3119L63.9622 63.0968ZM72.0378 67.3924C71.9109 67.5147 71.8396 67.6805 71.8396 67.8533C71.8396 68.0261 71.9109 68.1919 72.0378 68.3142L72.6881 68.9403H63.4835C63.3038 68.9403 63.1315 69.009 63.0044 69.1313C62.8774 69.2536 62.806 69.4195 62.806 69.5924C62.806 69.7654 62.8774 69.9313 63.0044 70.0536C63.1315 70.1759 63.3038 70.2446 63.4835 70.2446H72.6881L72.0378 70.8707C71.9712 70.9304 71.9178 71.0024 71.8808 71.0824C71.8438 71.1624 71.8238 71.2488 71.8222 71.3363C71.8206 71.4239 71.8374 71.5109 71.8714 71.5921C71.9055 71.6733 71.9562 71.7471 72.0206 71.809C72.0849 71.8709 72.1615 71.9197 72.2459 71.9525C72.3302 71.9853 72.4206 72.0014 72.5116 71.9999C72.6025 71.9984 72.6922 71.9792 72.7753 71.9435C72.8584 71.9079 72.9332 71.8565 72.9953 71.7924L74.8019 70.0533C74.9287 69.931 75 69.7653 75 69.5924C75 69.4196 74.9287 69.2538 74.8019 69.1316L72.9953 67.3924C72.8682 67.2703 72.696 67.2017 72.5165 67.2017C72.337 67.2017 72.1648 67.2703 72.0378 67.3924Z" fill="white"/>
</g>
<rect x="56.5" y="55.5" width="23" height="23" rx="11.5" stroke="white"/>
<defs>
<clipPath id="clip0_80_1003">
<rect width="80" height="80" fill="white"/>
</clipPath>
<clipPath id="clip1_80_1003">
<rect x="56" y="55" width="24" height="24" rx="12" fill="white"/>
</clipPath>
</defs>
</svg>
