<svg width="44" height="40" viewBox="0 0 44 40" fill="none" xmlns="http://www.w3.org/2000/svg">
<rect x="0.320557" width="39.3207" height="39.5813" rx="19.6603" fill="#FF4308"/>
<path d="M12.3982 21.0843C12.3982 21.0843 11.6942 23.3043 12.1049 24.2391C12.1049 24.2391 9.49421 27.1309 12.1929 29.9351C12.1929 29.9351 17.8249 35.894 26.1556 29.4093C26.1556 29.4093 30.2894 29.7787 28.9883 26.7397C28.9883 26.7397 28.2115 25.5203 26.5663 27.1309C26.5663 27.1309 35.6597 20.3541 29.9103 13.3436C24.1609 6.33307 13.8356 7.38464 11.3715 12.7009C8.90754 18.0173 12.3982 21.0843 12.3982 21.0843Z" fill="white" stroke="black" stroke-width="0.469248" stroke-miterlimit="10" stroke-linejoin="round"/>
<path d="M27.0198 28.1588C27.1225 27.9711 27.4437 27.6319 27.9061 27.7767" stroke="black" stroke-width="0.364971" stroke-linecap="round"/>
<path d="M21.5921 14.4913C21.5921 14.4913 14.4406 20.5795 12.5062 21.399C12.5062 21.399 12.1545 23.7406 12.2717 24.2675C12.2717 24.2675 10.1615 25.7895 11.2752 28.658C11.2752 28.658 8.34432 31.4094 6.40992 30.2386C6.40992 30.2386 5.99959 30.0044 6.93748 29.7703C7.87537 29.5361 8.98912 27.897 8.46156 25.731C7.93399 23.565 5.94097 13.0278 13.62 9.39829C13.62 9.39829 18.3681 6.52982 23.7023 8.92997C23.7023 8.92997 22.823 6.12004 25.0505 6.00296C27.278 5.88588 26.6918 9.28121 26.6918 9.28121C26.6918 9.28121 28.2159 5.71026 30.8537 7.70062C30.8537 7.70062 32.2606 10.1593 29.8572 11.1545C29.8572 11.1545 34.957 13.9059 33.3157 21.3405C33.3157 21.3405 29.8572 29.2434 31.4399 33.2827C31.4399 33.2827 31.7916 33.8681 30.7365 33.3998C29.6814 32.9314 26.1643 31.5265 26.047 29.3019C26.047 29.3019 29.0952 29.7117 29.1538 27.4872C29.1538 27.4872 29.3883 26.1993 27.8642 26.1993L26.792 26.8314C26.792 26.8314 26.516 27.0189 26.3988 26.492C26.2815 25.9652 26.8677 25.9652 26.8677 25.3798C26.8677 24.7943 26.8091 23.9748 25.8126 23.1552C24.8161 22.3357 21.4748 18.2379 21.5921 14.4913Z" fill="black"/>
<path d="M17.7924 25.7346C17.7924 25.7346 17.2098 25.1328 16.7437 25.8549C16.7437 25.8549 16.3942 26.6975 17.6176 26.5169" stroke="black" stroke-width="0.417109" stroke-miterlimit="10" stroke-linecap="round"/>
<path d="M14.3913 21.6934C14.3913 21.6934 14.451 22.2791 14.8096 22.3962C15.1681 22.5133 15.7059 22.6891 15.7059 23.5676C15.7059 24.4462 15.5864 26.0276 14.8693 25.9104C14.1523 25.7933 13.7937 24.6805 14.3913 22.8062" stroke="black" stroke-width="0.521387" stroke-miterlimit="10" stroke-linecap="round"/>
<path d="M20.8564 22.1108C20.8564 22.1108 20.9161 22.6965 21.2747 22.8137C21.6332 22.9308 22.171 23.1065 22.171 23.9851C22.171 24.8636 22.0515 26.4451 21.3344 26.3279C20.6174 26.2108 20.2588 25.0979 20.8564 23.2237" stroke="black" stroke-width="0.521387" stroke-miterlimit="10" stroke-linecap="round"/>
<path d="M14.2897 24.0547C14.2897 24.0547 14.3485 23.5327 14.8196 23.4747C15.2907 23.4167 15.4847 23.686 15.5263 24.0547C15.5852 24.5768 15.5628 25.9231 15.1029 25.9173C14.643 25.9109 13.9363 25.5629 14.2897 24.0547Z" fill="black"/>
<path d="M20.7547 24.432C20.7547 24.432 20.8136 23.8988 21.2847 23.8396C21.7558 23.7803 21.9498 24.0554 21.9914 24.432C22.0502 24.9651 22.0279 26.3401 21.568 26.3342C21.1081 26.3277 20.4014 25.9722 20.7547 24.432Z" fill="black"/>
<path d="M15.0421 19.5008C15.0421 19.5008 16.7595 18.9883 17.2109 20.5511" stroke="black" stroke-width="0.521387" stroke-miterlimit="10" stroke-linecap="round"/>
<path d="M20.4371 20.5972C20.4371 20.5972 22.2224 19.43 23.7427 20.5935" stroke="black" stroke-width="0.521387" stroke-miterlimit="10" stroke-linecap="round"/>
<path d="M14.2571 27.8539C14.4086 27.5506 14.0145 27.0478 13.377 26.7309C12.7394 26.414 12.0998 26.403 11.9483 26.7062C11.7969 27.0095 12.1909 27.5123 12.8285 27.8292C13.4661 28.1461 14.1057 28.1571 14.2571 27.8539Z" fill="#FF7262"/>
<path d="M22.8105 28.8896C23.5051 28.7322 24.0073 28.3366 23.9322 28.0062C23.8571 27.6757 23.2332 27.5355 22.5386 27.6929C21.8441 27.8504 21.3419 28.2459 21.4169 28.5764C21.492 28.9069 22.1159 29.0471 22.8105 28.8896Z" fill="#FF7262"/>
<path d="M16.4348 28.5762C16.4348 28.5762 16.596 29.3916 17.7725 29.41C18.9489 29.4284 19.3024 28.8151 19.3024 28.8151" stroke="black" stroke-width="0.417109" stroke-miterlimit="10" stroke-linecap="round"/>
<rect x="32.0002" y="28" width="12" height="12" rx="6" fill="white"/>
<path d="M40.5002 32.375L37.2502 35.625L35.7729 34.1477" stroke="black" stroke-linecap="round" stroke-linejoin="round"/>
</svg>
