<svg width="46" height="44" viewBox="0 0 46 44" fill="none" xmlns="http://www.w3.org/2000/svg">
<rect x="1" y="1" width="41.3207" height="41.5813" rx="20.6603" fill="#FFAD08"/>
<rect x="1" y="1" width="41.3207" height="41.5813" rx="20.6603" stroke="white" stroke-width="2"/>
<path d="M14.0777 23.0843C14.0777 23.0843 13.3737 25.3043 13.7843 26.2391C13.7843 26.2391 11.1736 29.1309 13.8723 31.9351C13.8723 31.9351 19.5044 37.894 27.8351 31.4093C27.8351 31.4093 31.9689 31.7787 30.6677 28.7397C30.6677 28.7397 29.8909 27.5203 28.2457 29.1309C28.2457 29.1309 37.3391 22.3541 31.5898 15.3436C25.8404 8.33307 15.515 9.38464 13.051 14.7009C10.587 20.0173 14.0777 23.0843 14.0777 23.0843Z" fill="white" stroke="black" stroke-width="0.469248" stroke-miterlimit="10" stroke-linejoin="round"/>
<path d="M28.6992 30.1588C28.802 29.9711 29.1231 29.6319 29.5856 29.7767" stroke="black" stroke-width="0.364971" stroke-linecap="round"/>
<path d="M23.2715 16.4913C23.2715 16.4913 16.1201 22.5795 14.1857 23.399C14.1857 23.399 13.834 25.7406 13.9512 26.2675C13.9512 26.2675 11.8409 27.7895 12.9547 30.658C12.9547 30.658 10.0238 33.4094 8.08936 32.2386C8.08936 32.2386 7.67903 32.0044 8.61693 31.7703C9.55482 31.5361 10.6686 29.897 10.141 27.731C9.61344 25.565 7.62041 15.0278 15.2994 11.3983C15.2994 11.3983 20.0475 8.52982 25.3818 10.93C25.3818 10.93 24.5025 8.12004 26.73 8.00296C28.9575 7.88588 28.3713 11.2812 28.3713 11.2812C28.3713 11.2812 29.8954 7.71026 32.5332 9.70062C32.5332 9.70062 33.94 12.1593 31.5367 13.1545C31.5367 13.1545 36.6365 15.9059 34.9952 23.3405C34.9952 23.3405 31.5367 31.2434 33.1194 35.2827C33.1194 35.2827 33.4711 35.8681 32.416 35.3998C31.3608 34.9314 27.8437 33.5265 27.7265 31.3019C27.7265 31.3019 30.7746 31.7117 30.8333 29.4872C30.8333 29.4872 31.0677 28.1993 29.5437 28.1993L28.4715 28.8314C28.4715 28.8314 28.1954 29.0189 28.0782 28.492C27.961 27.9652 28.5471 27.9652 28.5471 27.3798C28.5471 26.7943 28.4885 25.9748 27.492 25.1552C26.4955 24.3357 23.1543 20.2379 23.2715 16.4913Z" fill="black"/>
<path d="M19.4719 27.7346C19.4719 27.7346 18.8893 27.1328 18.4232 27.8549C18.4232 27.8549 18.0736 28.6975 19.2971 28.5169" stroke="black" stroke-width="0.417109" stroke-miterlimit="10" stroke-linecap="round"/>
<path d="M16.0707 23.6934C16.0707 23.6934 16.1305 24.2791 16.489 24.3962C16.8475 24.5133 17.3853 24.6891 17.3853 25.5676C17.3853 26.4462 17.2658 28.0276 16.5488 27.9104C15.8317 27.7933 15.4732 26.6805 16.0707 24.8062" stroke="black" stroke-width="0.521387" stroke-miterlimit="10" stroke-linecap="round"/>
<path d="M22.5358 24.1108C22.5358 24.1108 22.5956 24.6965 22.9541 24.8137C23.3126 24.9308 23.8504 25.1065 23.8504 25.9851C23.8504 26.8636 23.7309 28.4451 23.0139 28.3279C22.2968 28.2108 21.9383 27.0979 22.5358 25.2237" stroke="black" stroke-width="0.521387" stroke-miterlimit="10" stroke-linecap="round"/>
<path d="M15.9691 26.0547C15.9691 26.0547 16.028 25.5327 16.4991 25.4747C16.9702 25.4167 17.1641 25.686 17.2057 26.0547C17.2646 26.5768 17.2422 27.9231 16.7823 27.9173C16.3224 27.9109 15.6158 27.5629 15.9691 26.0547Z" fill="black"/>
<path d="M22.4342 26.432C22.4342 26.432 22.4931 25.8988 22.9642 25.8396C23.4353 25.7803 23.6292 26.0554 23.6708 26.432C23.7297 26.9651 23.7073 28.3401 23.2474 28.3342C22.7875 28.3277 22.0809 27.9722 22.4342 26.432Z" fill="black"/>
<path d="M16.7215 21.5008C16.7215 21.5008 18.439 20.9883 18.8904 22.5511" stroke="black" stroke-width="0.521387" stroke-miterlimit="10" stroke-linecap="round"/>
<path d="M22.1166 22.5972C22.1166 22.5972 23.9019 21.43 25.4221 22.5935" stroke="black" stroke-width="0.521387" stroke-miterlimit="10" stroke-linecap="round"/>
<path d="M15.9366 29.8539C16.088 29.5506 15.694 29.0478 15.0564 28.7309C14.4188 28.414 13.7792 28.403 13.6278 28.7062C13.4763 29.0095 13.8704 29.5123 14.5079 29.8292C15.1455 30.1461 15.7851 30.1571 15.9366 29.8539Z" fill="#FF7262"/>
<path d="M24.4899 30.8896C25.1845 30.7322 25.6867 30.3366 25.6116 30.0062C25.5366 29.6757 24.9127 29.5355 24.2181 29.6929C23.5235 29.8504 23.0213 30.2459 23.0964 30.5764C23.1714 30.9069 23.7954 31.0471 24.4899 30.8896Z" fill="#FF7262"/>
<path d="M18.1143 30.5762C18.1143 30.5762 18.2754 31.3916 19.4519 31.41C20.6284 31.4284 20.9819 30.8151 20.9819 30.8151" stroke="black" stroke-width="0.417109" stroke-miterlimit="10" stroke-linecap="round"/>
<rect x="34" y="30" width="12" height="12" rx="6" fill="white"/>
<path d="M42.5 34.375L39.25 37.625L37.7727 36.1477" stroke="black" stroke-linecap="round" stroke-linejoin="round"/>
</svg>
