<svg width="40" height="40" viewBox="0 0 40 40" fill="none" xmlns="http://www.w3.org/2000/svg">
<rect x="0.641357" width="39.3207" height="39.5813" rx="19.6603" fill="#087AFF"/>
<path d="M12.719 21.0843C12.719 21.0843 12.015 23.3043 12.4257 24.2391C12.4257 24.2391 9.81501 27.1309 12.5137 29.9351C12.5137 29.9351 18.1457 35.894 26.4764 29.4093C26.4764 29.4093 30.6102 29.7787 29.3091 26.7397C29.3091 26.7397 28.5323 25.5203 26.8871 27.1309C26.8871 27.1309 35.9805 20.3541 30.2311 13.3436C24.4817 6.33307 14.1564 7.38464 11.6923 12.7009C9.22834 18.0173 12.719 21.0843 12.719 21.0843Z" fill="white" stroke="black" stroke-width="0.469248" stroke-miterlimit="10" stroke-linejoin="round"/>
<path d="M27.3406 28.1588C27.4433 27.9711 27.7645 27.6319 28.2269 27.7767" stroke="black" stroke-width="0.364971" stroke-linecap="round"/>
<path d="M21.9129 14.4913C21.9129 14.4913 14.7614 20.5795 12.827 21.399C12.827 21.399 12.4753 23.7406 12.5925 24.2675C12.5925 24.2675 10.4823 25.7895 11.596 28.658C11.596 28.658 8.66512 31.4094 6.73072 30.2386C6.73072 30.2386 6.32039 30.0044 7.25828 29.7703C8.19618 29.5361 9.30992 27.897 8.78236 25.731C8.25479 23.565 6.26177 13.0278 13.9408 9.39829C13.9408 9.39829 18.6889 6.52982 24.0231 8.92997C24.0231 8.92997 23.1438 6.12004 25.3713 6.00296C27.5988 5.88588 27.0126 9.28121 27.0126 9.28121C27.0126 9.28121 28.5367 5.71026 31.1745 7.70062C31.1745 7.70062 32.5814 10.1593 30.178 11.1545C30.178 11.1545 35.2778 13.9059 33.6365 21.3405C33.6365 21.3405 30.178 29.2434 31.7607 33.2827C31.7607 33.2827 32.1124 33.8681 31.0573 33.3998C30.0022 32.9314 26.4851 31.5265 26.3678 29.3019C26.3678 29.3019 29.416 29.7117 29.4746 27.4872C29.4746 27.4872 29.7091 26.1993 28.185 26.1993L27.1128 26.8314C27.1128 26.8314 26.8368 27.0189 26.7196 26.492C26.6023 25.9652 27.1885 25.9652 27.1885 25.3798C27.1885 24.7943 27.1299 23.9748 26.1334 23.1552C25.1369 22.3357 21.7956 18.2379 21.9129 14.4913Z" fill="black"/>
<path d="M18.1132 25.7346C18.1132 25.7346 17.5306 25.1328 17.0645 25.8549C17.0645 25.8549 16.715 26.6975 17.9384 26.5169" stroke="black" stroke-width="0.417109" stroke-miterlimit="10" stroke-linecap="round"/>
<path d="M14.7121 21.6934C14.7121 21.6934 14.7718 22.2791 15.1304 22.3962C15.4889 22.5133 16.0267 22.6891 16.0267 23.5676C16.0267 24.4462 15.9072 26.0276 15.1901 25.9104C14.4731 25.7933 14.1145 24.6805 14.7121 22.8062" stroke="black" stroke-width="0.521387" stroke-miterlimit="10" stroke-linecap="round"/>
<path d="M21.1772 22.1108C21.1772 22.1108 21.2369 22.6965 21.5955 22.8137C21.954 22.9308 22.4918 23.1065 22.4918 23.9851C22.4918 24.8636 22.3723 26.4451 21.6552 26.3279C20.9382 26.2108 20.5796 25.0979 21.1772 23.2237" stroke="black" stroke-width="0.521387" stroke-miterlimit="10" stroke-linecap="round"/>
<path d="M14.6105 24.0547C14.6105 24.0547 14.6693 23.5327 15.1404 23.4747C15.6115 23.4167 15.8055 23.686 15.8471 24.0547C15.906 24.5768 15.8836 25.9231 15.4237 25.9173C14.9638 25.9109 14.2571 25.5629 14.6105 24.0547Z" fill="black"/>
<path d="M21.0755 24.432C21.0755 24.432 21.1344 23.8988 21.6055 23.8396C22.0766 23.7803 22.2706 24.0554 22.3122 24.432C22.371 24.9651 22.3487 26.3401 21.8888 26.3342C21.4289 26.3277 20.7222 25.9722 21.0755 24.432Z" fill="black"/>
<path d="M15.3629 19.5008C15.3629 19.5008 17.0803 18.9883 17.5317 20.5511" stroke="black" stroke-width="0.521387" stroke-miterlimit="10" stroke-linecap="round"/>
<path d="M20.7579 20.5972C20.7579 20.5972 22.5432 19.43 24.0635 20.5935" stroke="black" stroke-width="0.521387" stroke-miterlimit="10" stroke-linecap="round"/>
<path d="M14.5779 27.8539C14.7294 27.5506 14.3353 27.0478 13.6978 26.7309C13.0602 26.414 12.4206 26.403 12.2691 26.7062C12.1177 27.0095 12.5117 27.5123 13.1493 27.8292C13.7869 28.1461 14.4265 28.1571 14.5779 27.8539Z" fill="#FF7262"/>
<path d="M23.1313 28.8896C23.8259 28.7322 24.3281 28.3366 24.253 28.0062C24.1779 27.6757 23.554 27.5355 22.8594 27.6929C22.1649 27.8504 21.6627 28.2459 21.7377 28.5764C21.8128 28.9069 22.4367 29.0471 23.1313 28.8896Z" fill="#FF7262"/>
<path d="M16.7556 28.5762C16.7556 28.5762 16.9168 29.3916 18.0933 29.41C19.2697 29.4284 19.6232 28.8151 19.6232 28.8151" stroke="black" stroke-width="0.417109" stroke-miterlimit="10" stroke-linecap="round"/>
</svg>
