<svg width="45" height="40" viewBox="0 0 45 40" fill="none" xmlns="http://www.w3.org/2000/svg">
<rect x="0.961914" width="39.3207" height="39.5813" rx="19.6603" fill="#6608FF"/>
<path d="M13.0396 21.0843C13.0396 21.0843 12.3356 23.3043 12.7462 24.2391C12.7462 24.2391 10.1356 27.1309 12.8342 29.9351C12.8342 29.9351 18.4663 35.894 26.797 29.4093C26.797 29.4093 30.9308 29.7787 29.6296 26.7397C29.6296 26.7397 28.8528 25.5203 27.2077 27.1309C27.2077 27.1309 36.301 20.3541 30.5517 13.3436C24.8023 6.33307 14.4769 7.38464 12.0129 12.7009C9.54889 18.0173 13.0396 21.0843 13.0396 21.0843Z" fill="white" stroke="black" stroke-width="0.469248" stroke-miterlimit="10" stroke-linejoin="round"/>
<path d="M27.6611 28.1588C27.7639 27.9711 28.085 27.6319 28.5475 27.7767" stroke="black" stroke-width="0.364971" stroke-linecap="round"/>
<path d="M22.2334 14.4913C22.2334 14.4913 15.082 20.5795 13.1476 21.399C13.1476 21.399 12.7959 23.7406 12.9131 24.2675C12.9131 24.2675 10.8028 25.7895 11.9166 28.658C11.9166 28.658 8.98568 31.4094 7.05127 30.2386C7.05127 30.2386 6.64095 30.0044 7.57884 29.7703C8.51673 29.5361 9.63048 27.897 9.10291 25.731C8.57535 23.565 6.58233 13.0278 14.2613 9.39829C14.2613 9.39829 19.0094 6.52982 24.3437 8.92997C24.3437 8.92997 23.4644 6.12004 25.6919 6.00296C27.9194 5.88588 27.3332 9.28121 27.3332 9.28121C27.3332 9.28121 28.8573 5.71026 31.4951 7.70062C31.4951 7.70062 32.9019 10.1593 30.4986 11.1545C30.4986 11.1545 35.5984 13.9059 33.9571 21.3405C33.9571 21.3405 30.4986 29.2434 32.0813 33.2827C32.0813 33.2827 32.433 33.8681 31.3779 33.3998C30.3227 32.9314 26.8056 31.5265 26.6884 29.3019C26.6884 29.3019 29.7366 29.7117 29.7952 27.4872C29.7952 27.4872 30.0296 26.1993 28.5056 26.1993L27.4334 26.8314C27.4334 26.8314 27.1574 27.0189 27.0401 26.492C26.9229 25.9652 27.5091 25.9652 27.5091 25.3798C27.5091 24.7943 27.4504 23.9748 26.4539 23.1552C25.4574 22.3357 22.1162 18.2379 22.2334 14.4913Z" fill="black"/>
<path d="M18.4338 25.7346C18.4338 25.7346 17.8512 25.1328 17.3851 25.8549C17.3851 25.8549 17.0355 26.6975 18.259 26.5169" stroke="black" stroke-width="0.417109" stroke-miterlimit="10" stroke-linecap="round"/>
<path d="M15.0326 21.6934C15.0326 21.6934 15.0924 22.2791 15.4509 22.3962C15.8095 22.5133 16.3473 22.6891 16.3473 23.5676C16.3473 24.4462 16.2277 26.0276 15.5107 25.9104C14.7936 25.7933 14.4351 24.6805 15.0326 22.8062" stroke="black" stroke-width="0.521387" stroke-miterlimit="10" stroke-linecap="round"/>
<path d="M21.4977 22.1108C21.4977 22.1108 21.5575 22.6965 21.916 22.8137C22.2745 22.9308 22.8123 23.1065 22.8123 23.9851C22.8123 24.8636 22.6928 26.4451 21.9758 26.3279C21.2587 26.2108 20.9002 25.0979 21.4977 23.2237" stroke="black" stroke-width="0.521387" stroke-miterlimit="10" stroke-linecap="round"/>
<path d="M14.931 24.0547C14.931 24.0547 14.9899 23.5327 15.461 23.4747C15.9321 23.4167 16.126 23.686 16.1676 24.0547C16.2265 24.5768 16.2041 25.9231 15.7442 25.9173C15.2843 25.9109 14.5777 25.5629 14.931 24.0547Z" fill="black"/>
<path d="M21.3961 24.432C21.3961 24.432 21.455 23.8988 21.9261 23.8396C22.3972 23.7803 22.5911 24.0554 22.6327 24.432C22.6916 24.9651 22.6692 26.3401 22.2093 26.3342C21.7494 26.3277 21.0428 25.9722 21.3961 24.432Z" fill="black"/>
<path d="M15.6835 19.5008C15.6835 19.5008 17.4009 18.9883 17.8523 20.5511" stroke="black" stroke-width="0.521387" stroke-miterlimit="10" stroke-linecap="round"/>
<path d="M21.0785 20.5972C21.0785 20.5972 22.8638 19.43 24.384 20.5935" stroke="black" stroke-width="0.521387" stroke-miterlimit="10" stroke-linecap="round"/>
<path d="M14.8985 27.8539C15.05 27.5506 14.6559 27.0478 14.0183 26.7309C13.3808 26.414 12.7411 26.403 12.5897 26.7062C12.4382 27.0095 12.8323 27.5123 13.4698 27.8292C14.1074 28.1461 14.747 28.1571 14.8985 27.8539Z" fill="#FF7262"/>
<path d="M23.4519 28.8896C24.1464 28.7322 24.6486 28.3366 24.5736 28.0062C24.4985 27.6757 23.8746 27.5355 23.18 27.6929C22.4854 27.8504 21.9832 28.2459 22.0583 28.5764C22.1334 28.9069 22.7573 29.0471 23.4519 28.8896Z" fill="#FF7262"/>
<path d="M17.0762 28.5762C17.0762 28.5762 17.2374 29.3916 18.4138 29.41C19.5903 29.4284 19.9438 28.8151 19.9438 28.8151" stroke="black" stroke-width="0.417109" stroke-miterlimit="10" stroke-linecap="round"/>
<rect x="33.001" y="28" width="12" height="12" rx="6" fill="white"/>
<path d="M41.501 32.375L38.251 35.625L36.7737 34.1477" stroke="black" stroke-linecap="round" stroke-linejoin="round"/>
</svg>
